<svg xmlns="http://www.w3.org/2000/svg" xmlns:xlink="http://www.w3.org/1999/xlink" viewBox="0,0,256,256" width="144px" height="144px"><g transform="translate(89.6,89.6) scale(0.3,0.3)"><g fill="#ff5252" fill-rule="nonzero" stroke="none" stroke-width="1" stroke-linecap="butt" stroke-linejoin="miter" stroke-miterlimit="10" stroke-dasharray="" stroke-dashoffset="0" font-family="none" font-weight="none" font-size="none" text-anchor="none" style="mix-blend-mode: normal"><g transform="translate(-276.8,8) scale(5.33333,5.33333)"><path d="M42.459,32.519c-1.037,-3.336 -9.539,-19.596 -12.12,-24.5l-0.026,-0.048c-1.16,-2.412 -3.637,-3.971 -6.313,-3.971c-2.676,0 -5.153,1.559 -6.291,3.929l-0.048,0.091c-2.581,4.903 -11.083,21.163 -12.119,24.498c-0.281,0.903 -0.542,1.889 -0.542,2.982c0,4.687 3.813,8.5 8.5,8.5c4.654,0 7.612,-1.949 10.5,-5.184c2.888,3.235 5.846,5.184 10.5,5.184c4.687,0 8.5,-3.813 8.5,-8.5c0,-1.093 -0.261,-2.079 -0.541,-2.981zM23.999,34.662c-1.669,-2.147 -3.999,-5.781 -3.999,-8.662c0,-2.206 1.794,-4 4,-4c2.206,0 4,1.794 4,4c0,2.872 -2.332,6.511 -4.001,8.662zM34.5,41c-3.287,0 -5.521,-1.107 -8.325,-4.258c1.703,-2.146 4.825,-6.638 4.825,-10.742c0,-3.86 -3.141,-7 -7,-7c-3.859,0 -7,3.14 -7,7c0,4.104 3.122,8.596 4.825,10.742c-2.804,3.151 -5.038,4.258 -8.325,4.258c-3.032,0 -5.5,-2.467 -5.5,-5.5c0,-0.653 0.162,-1.308 0.406,-2.09c0.764,-2.46 6.894,-14.462 11.91,-23.993l0.076,-0.146c0.663,-1.38 2.079,-2.271 3.608,-2.271c1.529,0 2.945,0.891 3.615,2.285l0.068,0.132c5.017,9.531 11.147,21.533 11.912,23.994c0.243,0.781 0.405,1.436 0.405,2.089c0,3.033 -2.468,5.5 -5.5,5.5z"></path></g></g><g fill="#fa5252" fill-rule="nonzero" stroke="none" stroke-width="1" stroke-linecap="butt" stroke-linejoin="miter" stroke-miterlimit="10" stroke-dasharray="" stroke-dashoffset="0" font-family="none" font-weight="none" font-size="none" text-anchor="none" style="mix-blend-mode: normal"><g><path d="M26.63167,179.325h-19.77c-0.90667,-1.76 -1.56,-3.95 -1.96,-6.57v0c-4.74,5.28 -10.90333,7.92 -18.49,7.92v0c-7.17333,0 -13.12,-2.07667 -17.84,-6.23c-4.72,-4.15333 -7.08,-9.39 -7.08,-15.71v0c0,-7.76 2.88,-13.71667 8.64,-17.87c5.75333,-4.15333 14.07,-6.25333 24.95,-6.3v0h9v-4.2c0,-3.38 -0.86667,-6.08667 -2.6,-8.12c-1.74,-2.03333 -4.48333,-3.05 -8.23,-3.05v0c-3.29333,0 -5.87667,0.79 -7.75,2.37c-1.87333,1.58 -2.81,3.74667 -2.81,6.5v0h-19.57c0,-4.24 1.31,-8.16667 3.93,-11.78c2.61333,-3.61333 6.31333,-6.44667 11.1,-8.5c4.78667,-2.05333 10.16,-3.08 16.12,-3.08v0c9.02667,0 16.19,2.27 21.49,6.81c5.30667,4.53333 7.96,10.90667 7.96,19.12v0v31.76c0.04667,6.95333 1.01667,12.21333 2.91,15.78v0zM-9.31833,165.715v0c2.88667,0 5.55,-0.64333 7.99,-1.93c2.43333,-1.28667 4.23667,-3.01333 5.41,-5.18v0v-12.6h-7.31c-9.79333,0 -15.00667,3.38667 -15.64,10.16v0l-0.07,1.15c0,2.44 0.85667,4.45 2.57,6.03c1.72,1.58 4.07,2.37 7.05,2.37zM59.40167,106.065v73.26h-19.63v-73.26zM38.61167,87.105v0c0,-2.93333 0.98333,-5.35 2.95,-7.25c1.96,-1.89333 4.63333,-2.84 8.02,-2.84v0c3.34,0 6.00333,0.94667 7.99,2.84c1.98667,1.9 2.98,4.31667 2.98,7.25v0c0,2.98 -1.00333,5.41667 -3.01,7.31c-2.00667,1.89333 -4.66,2.84 -7.96,2.84c-3.29333,0 -5.94333,-0.94667 -7.95,-2.84c-2.01333,-1.89333 -3.02,-4.33 -3.02,-7.31zM116.95167,105.585l-0.27,18.83c-2.66,-0.36667 -5.00667,-0.55 -7.04,-0.55v0c-7.4,0 -12.25333,2.50667 -14.56,7.52v0v47.94h-19.56v-73.26h18.48l0.54,8.73c3.92667,-6.72667 9.36667,-10.09 16.32,-10.09v0c2.16667,0 4.19667,0.29333 6.09,0.88zM192.11167,142.285v1.08c0,11.74 -2.50667,20.89333 -7.52,27.46c-5.00667,6.56667 -12.00333,9.85 -20.99,9.85v0c-7.94,0 -14.28,-3.04667 -19.02,-9.14v0l-0.88,7.79h-17.61v-104h19.57v37.3c4.51333,-5.28 10.45,-7.92 17.81,-7.92v0c8.93333,0 15.94,3.28333 21.02,9.85c5.08,6.57333 7.62,15.81667 7.62,27.73zM172.54167,141.945v0c0,-7.4 -1.17333,-12.80333 -3.52,-16.21c-2.34667,-3.41333 -5.84333,-5.12 -10.49,-5.12v0c-6.23333,0 -10.52333,2.55 -12.87,7.65v0v28.92c2.39333,5.14 6.72667,7.71 13,7.71v0c6.32,0 10.47333,-3.11333 12.46,-9.34v0c0.94667,-2.98 1.42,-7.51667 1.42,-13.61zM203.75167,106.065h18.42l0.61,8.46c5.23333,-6.54667 12.25333,-9.82 21.06,-9.82v0c7.76,0 13.53667,2.28 17.33,6.84c3.79333,4.56 5.73333,11.37667 5.82,20.45v0v47.33h-19.56v-46.86c0,-4.15333 -0.90333,-7.16667 -2.71,-9.04c-1.80667,-1.87333 -4.81,-2.81 -9.01,-2.81v0c-5.50667,0 -9.63667,2.35 -12.39,7.05v0v51.66h-19.57zM347.84167,142.285v1.08c0,11.74 -2.50667,20.89333 -7.52,27.46c-5.00667,6.56667 -12.00333,9.85 -20.99,9.85v0c-7.94,0 -14.28,-3.04667 -19.02,-9.14v0l-0.88,7.79h-17.61v-104h19.57v37.3c4.51333,-5.28 10.45,-7.92 17.81,-7.92v0c8.93333,0 15.94,3.28333 21.02,9.85c5.08,6.57333 7.62,15.81667 7.62,27.73zM328.27167,141.945v0c0,-7.4 -1.17333,-12.80333 -3.52,-16.21c-2.34667,-3.41333 -5.84667,-5.12 -10.5,-5.12v0c-6.22667,0 -10.51333,2.55 -12.86,7.65v0v28.92c2.39333,5.14 6.72667,7.71 13,7.71v0c6.32,0 10.47333,-3.11333 12.46,-9.34v0c0.94667,-2.98 1.42,-7.51667 1.42,-13.61z"></path></g></g></g></svg>